<?xml version="1.0" encoding="UTF-8"?>
<svg width="40px" height="36px" viewBox="0 0 40 36" version="1.1" xmlns="http://www.w3.org/2000/svg" xmlns:xlink="http://www.w3.org/1999/xlink">
    <!-- Generator: Sketch 47.1 (45422) - http://www.bohemiancoding.com/sketch -->
    <title>Page 1</title>
    <desc>Created with Sketch.</desc>
    <defs>
        <polygon id="path-1" points="0 25.59984 0 -0.00016 22.39984 -0.00016 22.39984 25.59984"></polygon>
    </defs>
    <g id="Version-3" stroke="none" stroke-width="1" fill="none" fill-rule="evenodd">
        <g id="Artist-detail" transform="translate(-160.000000, -14.000000)">
            <g id="Page-1" transform="translate(160.000000, 14.000000)">
                <g id="Group-3" transform="translate(0.000000, 1.153360)">
                    <mask id="mask-2" fill="white">
                        <use xlink:href="#path-1"></use>
                    </mask>
                    <g id="Clip-2"></g>
                    <path d="M22.20624,23.33984 C22.21264,23.32544 22.21584,23.31024 22.22224,23.29584 C22.26784,23.18144 22.30384,23.06304 22.33184,22.94304 C22.34144,22.90384 22.34944,22.86464 22.35664,22.82384 C22.38224,22.68544 22.39984,22.54464 22.39984,22.39984 L22.39984,2.39984 L22.39984,2.39824 C22.39984,2.23824 22.38304,2.07904 22.35184,1.92224 C22.34864,1.90624 22.34144,1.89104 22.33824,1.87664 C22.24304,1.44464 22.03344,1.03344 21.69984,0.69984 C21.36624,0.36624 20.95504,0.15664 20.52384,0.06144 C20.50784,0.05824 20.49424,0.05184 20.47824,0.04864 C20.32144,0.01744 20.16144,-0.00016 20.00144,-0.00016 L19.99984,-0.00016 C19.98464,-0.00016 19.97104,0.00384 19.95584,0.00464 C19.81264,0.00704 19.67104,0.01984 19.53024,0.04784 C19.47744,0.05824 19.42864,0.07904 19.37664,0.09264 C19.27504,0.12064 19.17344,0.14624 19.07584,0.18704 C19.04464,0.19984 19.01744,0.21984 18.98624,0.23344 C18.74064,0.34864 18.50784,0.49824 18.30624,0.69984 L13.19984,4.60464 L8.09424,0.69984 C7.89184,0.49824 7.65904,0.34864 7.41344,0.23344 C7.38304,0.21984 7.35584,0.19984 7.32384,0.18704 C7.22624,0.14624 7.12464,0.12064 7.02304,0.09264 C6.97104,0.07904 6.92304,0.05824 6.86944,0.04784 C6.72864,0.01984 6.58704,0.00704 6.44384,0.00464 C6.42864,0.00384 6.41504,-0.00016 6.39984,-0.00016 L6.39824,-0.00016 C6.23904,-0.00016 6.07904,0.01744 5.92144,0.04864 C5.90624,0.05184 5.89184,0.05824 5.87584,0.06144 C5.44464,0.15664 5.03424,0.36624 4.69984,0.69984 C4.36624,1.03344 4.15664,1.44464 4.06224,1.87664 C4.05824,1.89104 4.05184,1.90624 4.04864,1.92224 C4.01744,2.07904 3.99984,2.23824 3.99984,2.39824 L3.99984,2.39984 L3.99984,16.81504 C1.75744,16.96144 -0.00016,18.33104 -0.00016,19.99984 C-0.00016,21.76704 1.97024,23.19984 4.39984,23.19984 C6.38064,23.19984 8.05424,22.24864 8.60624,20.93984 C8.61264,20.92544 8.61584,20.91024 8.62224,20.89584 C8.66784,20.78144 8.70384,20.66304 8.73184,20.54304 C8.74144,20.50384 8.74944,20.46464 8.75664,20.42384 C8.78224,20.28544 8.79984,20.14464 8.79984,19.99984 L8.79984,7.22944 L11.49984,9.29344 C11.96784,9.76144 12.58384,9.99424 13.19984,9.99344 C13.81584,9.99424 14.43264,9.76144 14.89984,9.29344 L17.59984,7.22944 L17.59984,19.21504 C15.35744,19.36144 13.59984,20.73104 13.59984,22.39984 C13.59984,24.16704 15.57024,25.59984 17.99984,25.59984 C19.98064,25.59984 21.65424,24.64864 22.20624,23.33984" id="Fill-1" fill="#FFFFFF" mask="url(#mask-2)"></path>
                </g>
                <path d="M38.89416,14.25336 L29.69416,7.45336 C29.49256,7.25176 29.25896,7.10216 29.01336,6.98696 C28.98296,6.97256 28.95576,6.95336 28.92456,6.93976 C28.82616,6.89976 28.72456,6.87336 28.62296,6.84616 C28.57096,6.83256 28.52296,6.81176 28.46936,6.80136 C28.32856,6.77256 28.18696,6.76056 28.04376,6.75816 C28.02856,6.75736 28.01496,6.75336 27.99976,6.75336 L27.99816,6.75336 C27.83896,6.75336 27.67896,6.77016 27.52136,6.80216 C27.50616,6.80456 27.49176,6.81176 27.47656,6.81496 C27.04456,6.91016 26.63416,7.11976 26.29976,7.45336 C25.96616,7.78696 25.75736,8.19816 25.66216,8.63016 C25.65896,8.64456 25.65176,8.65976 25.64856,8.67496 C25.61736,8.83256 25.59976,8.99176 25.59976,9.15176 L25.59976,9.15336 L25.59976,29.16856 C23.35816,29.31496 21.59976,30.68456 21.59976,32.35336 C21.59976,34.12056 23.57016,35.55336 25.99976,35.55336 C27.98056,35.55336 29.65416,34.60216 30.20616,33.29336 C30.21256,33.27896 30.21576,33.26376 30.22216,33.24936 C30.26776,33.13496 30.30376,33.01656 30.33176,32.89656 C30.34136,32.85736 30.34936,32.81816 30.35736,32.77736 C30.38216,32.63816 30.39976,32.49816 30.39976,32.35336 L30.39976,22.65416 L32.29976,24.04696 C33.23336,24.98056 34.76056,24.98056 35.69416,24.04696 C36.62776,23.11416 36.62776,21.58696 35.69416,20.65336 L30.39976,16.77096 L30.39976,13.87736 L35.49976,17.64696 C36.43336,18.58056 37.96056,18.58056 38.89416,17.64696 C39.82776,16.71416 39.82776,15.18696 38.89416,14.25336" id="Fill-4" fill="#FFFFFF"></path>
                <path d="M10,11.95336 C9.7792,11.95336 9.6,12.13256 9.6,12.35336 L9.6,17.95336 C9.6,18.17416 9.7792,18.35336 10,18.35336 C10.2208,18.35336 10.4,18.17416 10.4,17.95336 L10.4,12.35336 C10.4,12.13256 10.2208,11.95336 10,11.95336" id="Fill-6" fill="#FFFFFF"></path>
                <path d="M10,19.55336 C9.7792,19.55336 9.6,19.73256 9.6,19.95336 L9.6,20.75336 C9.6,20.97416 9.7792,21.15336 10,21.15336 C10.2208,21.15336 10.4,20.97416 10.4,20.75336 L10.4,19.95336 C10.4,19.73256 10.2208,19.55336 10,19.55336" id="Fill-8" fill="#FFFFFF"></path>
                <path d="M31.6,25.95336 C31.3792,25.95336 31.2,26.13256 31.2,26.35336 L31.2,27.15336 C31.2,27.37416 31.3792,27.55336 31.6,27.55336 C31.8208,27.55336 32,27.37416 32,27.15336 L32,26.35336 C32,26.13256 31.8208,25.95336 31.6,25.95336" id="Fill-10" fill="#FFFFFF"></path>
                <path d="M31.6,28.35336 C31.3792,28.35336 31.2,28.53256 31.2,28.75336 L31.2,31.95336 C31.2,32.17416 31.3792,32.35336 31.6,32.35336 C31.8208,32.35336 32,32.17416 32,31.95336 L32,28.75336 C32,28.53256 31.8208,28.35336 31.6,28.35336" id="Fill-12" fill="#FFFFFF"></path>
                <path d="M12.15976,4.27288 C12.23176,4.32728 12.31576,4.35368 12.39976,4.35368 C12.52136,4.35368 12.64136,4.29768 12.71976,4.19368 C12.85256,4.01688 12.81656,3.76568 12.64056,3.63368 L7.91016,0.08088 C7.73416,-0.05352 7.48296,-0.01512 7.35016,0.15928 C7.21816,0.33688 7.25336,0.58808 7.43016,0.72008 L12.15976,4.27288 Z" id="Fill-14" fill="#FFFFFF"></path>
                <path d="M34.55976,9.87288 C34.63176,9.92728 34.71576,9.95368 34.79976,9.95368 C34.92136,9.95368 35.04136,9.89768 35.11976,9.79368 C35.25256,9.61688 35.21656,9.36568 35.04056,9.23368 L30.31016,5.68088 C30.13416,5.54648 29.88296,5.58408 29.75016,5.75928 C29.61816,5.93688 29.65336,6.18808 29.83016,6.32008 L34.55976,9.87288 Z" id="Fill-16" fill="#FFFFFF"></path>
                <path d="M37.7672,12.27832 C37.8376,12.32872 37.9192,12.35352 38,12.35352 C38.124,12.35352 38.2472,12.29512 38.3256,12.18632 C38.4536,12.00632 38.4128,11.75672 38.2328,11.62872 L36.6768,10.51432 C36.4984,10.38472 36.2472,10.42632 36.1184,10.60632 C35.9904,10.78632 36.032,11.03592 36.2112,11.16392 L37.7672,12.27832 Z" id="Fill-18" fill="#FFFFFF"></path>
            </g>
        </g>
    </g>
</svg>